PathFileType  4	(X/Y/Z) C:\Users\antoi\Documents\MyRepositories\mobilecap\ResultsAnalysis
DataRate	CameraRate	NumFrames	NumMarkers	Units	OrigDataRate	OrigDataStartFrame	OrigNumFrames
100.0	100.0	7	51	mm	100.0	16	121
Frame#	Time	r_knee			r_shank_antsup			r_ankle			r_calc			r_5meta			r_toe			L_knee			L_shank_antsup			L_ankle			L_calc			L_5meta			L_toe			r_sh2			r_sh3			r_sh4			L_sh2			L_sh3			r_thigh1			r_thigh2			r_thigh3			r_thigh4			r_thigh5			L_thigh1			L_thigh2			L_thigh3			L_thigh4			r.ASIS			r.PSIS			L.ASIS			L.PSIS			C7			R_Shoulder			L_Shoulder			R_Sternum			L_Sternum			R_humerus			R_elbow_med			R_elbow_lat			R_forearm			R_wrist_radius			R_wrist_ulna			L_humerus			L_elbow_med			L_elbow_lat			L_forearm			L_wrist_radius			L_wrist_ulna			R_HJC			L_HJC			R_HJC_reg			L_HJC_reg			
		X1	Y1	Z1	X2	Y2	Z2	X3	Y3	Z3	X4	Y4	Z4	X5	Y5	Z5	X6	Y6	Z6	X7	Y7	Z7	X8	Y8	Z8	X9	Y9	Z9	X10	Y10	Z10	X11	Y11	Z11	X12	Y12	Z12	X13	Y13	Z13	X14	Y14	Z14	X15	Y15	Z15	X16	Y16	Z16	X17	Y17	Z17	X18	Y18	Z18	X19	Y19	Z19	X20	Y20	Z20	X21	Y21	Z21	X22	Y22	Z22	X23	Y23	Z23	X24	Y24	Z24	X25	Y25	Z25	X26	Y26	Z26	X27	Y27	Z27	X28	Y28	Z28	X29	Y29	Z29	X30	Y30	Z30	X31	Y31	Z31	X32	Y32	Z32	X33	Y33	Z33	X34	Y34	Z34	X35	Y35	Z35	X36	Y36	Z36	X37	Y37	Z37	X38	Y38	Z38	X39	Y39	Z39	X40	Y40	Z40	X41	Y41	Z41	X42	Y42	Z42	X43	Y43	Z43	X44	Y44	Z44	X45	Y45	Z45	X46	Y46	Z46	X47	Y47	Z47	X48	Y48	Z48	X49	Y49	Z49	X50	Y50	Z50	X51	Y51	Z51	

16	0.15000000	155.19196	462.85344	-53.33075	171.14827	388.68329	-34.41757	133.30222	90.11432	-83.88530	60.59112	58.71362	-118.42747	235.45483	46.31952	-65.35425	274.13394	67.28546	-124.03337	-7.56148	432.40451	-337.31103	-39.65099	369.87431	-340.32377	-312.14957	244.79519	-269.11060	-349.55505	295.10544	-207.97899	-341.55326	142.59437	-296.67520	-296.05303	97.54088	-256.06384	168.24799	276.18667	-37.22569	94.99721	389.77159	-35.44383	84.49506	274.70319	-42.35193	-81.93564	449.22686	-336.74687	-182.57158	382.42703	-321.17366	131.93978	780.62231	-43.22271	171.11687	673.43904	-44.28639	134.02301	637.95791	1.49160	45.59588	750.39053	25.28402	76.58997	639.93470	8.91992	54.95943	715.76154	-340.60183	65.92741	579.33928	-353.13322	-62.41064	705.68903	-336.78346	-40.32047	565.83073	-335.38557	89.55523	908.49415	-50.22779	-102.41739	901.82001	-103.42711	59.66564	886.51311	-307.03108	-115.30794	891.32678	-208.23859	-58.27188	1372.56300	-150.97677	12.26569	1315.30288	-0.09770	-3.83979	1321.86713	-316.53028	61.96499	1290.08652	-139.08870	58.16010	1290.68266	-183.31282	2.06942	1071.77211	69.65212	-50.73123	977.34052	11.05559	-39.18085	993.07933	80.01312	-17.21725	876.49342	107.32930	-29.69577	755.79915	116.58859	-74.16249	762.89200	122.92751	47.13591	1200.75788	-367.97549	28.04651	977.32894	-337.02589	37.10310	990.67407	-397.85403	135.83065	933.44152	-402.83834	219.43337	841.08393	-379.05644	198.57190	814.59247	-400.87186	29.06240	824.87176	-65.81179	8.79944	811.29048	-264.62016	32.68270	818.64133	-71.48651	11.88023	801.70978	-240.63187	
17	0.16000000	159.68874	462.71739	-52.54339	174.00065	388.33843	-33.74850	133.36191	90.26012	-83.77561	60.69675	58.88788	-118.44904	235.54130	46.20933	-65.34516	274.26161	67.04824	-124.06240	20.68553	435.54196	-337.40193	-10.55809	372.29815	-339.73976	-282.59476	246.74181	-267.92481	-323.29839	296.47525	-208.21589	-307.31825	143.49468	-294.74558	-260.96517	100.77430	-252.80595	169.83182	275.88248	-36.58936	97.86557	390.31873	-35.47696	85.95666	275.55919	-42.68743	-52.89186	451.66786	-337.18146	-153.42874	384.98581	-321.01100	142.80043	781.30528	-42.66119	180.16453	673.27174	-43.80596	142.58485	638.47893	2.19606	56.37345	752.68243	26.20912	84.86312	641.44160	9.66026	72.86038	720.28808	-339.56503	88.30531	584.36247	-352.62428	-44.19202	706.66685	-335.62008	-17.44347	567.43663	-334.96967	102.32586	910.62765	-49.12168	-89.59228	905.10939	-101.97539	72.79927	889.85291	-305.90803	-102.36197	894.64801	-206.57970	-43.77826	1375.80848	-150.43315	27.42025	1318.26739	-0.09200	9.57618	1325.02802	-316.33541	76.03724	1292.80230	-139.15534	72.03178	1293.47571	-183.36869	20.72842	1074.66218	69.91973	-33.13748	979.65907	13.45271	-19.69199	995.72281	81.94054	5.85107	879.20512	107.99714	-3.85757	758.27336	117.42999	-48.29186	764.44195	125.31974	59.41309	1203.25351	-367.78482	37.67322	980.46897	-335.36135	46.48561	993.27951	-396.36527	142.49645	932.28199	-403.25027	222.36085	836.33207	-381.08772	200.05474	810.87170	-402.16904	41.75791	827.37520	-64.75202	21.40206	814.57874	-263.59679	44.97388	821.73938	-70.44150	24.33642	804.83612	-239.50194	
18	0.17000000	163.88138	462.64454	-51.82726	176.57726	388.11095	-33.14171	133.47904	90.43410	-83.67315	60.80754	59.07480	-118.46655	235.62512	46.12447	-65.32390	274.40353	66.86394	-124.05763	48.75853	439.21028	-337.29216	18.73269	374.89066	-338.87692	-252.18096	247.14599	-266.88178	-296.26594	296.30346	-208.79251	-272.07925	142.84895	-292.69024	-224.84364	102.71094	-249.33522	171.22801	275.70743	-35.99493	100.48750	390.93046	-35.52654	87.30525	276.43498	-43.01121	-24.18012	453.98927	-337.85305	-124.22803	386.76371	-321.25340	153.28416	781.88744	-42.37863	188.91638	673.10270	-43.65513	151.01019	639.00343	2.67661	66.97771	754.89876	27.05584	93.06202	642.94723	10.29687	90.52587	725.20289	-338.58571	110.36017	589.87384	-351.96482	-26.00953	708.22079	-334.55577	5.17427	569.65163	-334.63162	114.92380	912.57249	-47.99081	-76.88222	908.49541	-100.55782	85.89874	893.29005	-304.77957	-89.50503	898.14819	-205.01348	-29.41606	1379.06078	-149.98296	42.20522	1321.21054	-0.13732	22.71438	1328.21104	-316.32625	89.94697	1295.62283	-139.34705	85.76411	1296.37246	-183.56551	39.15667	1077.61090	70.10472	-15.72936	981.95147	15.97789	-0.24767	998.39340	83.87541	29.13511	882.04376	108.45137	22.42323	760.92124	117.96849	-21.89358	766.06997	127.52531	71.47278	1205.75330	-367.76717	47.13191	983.63632	-333.88542	55.78174	995.93514	-395.03553	148.77804	931.25292	-403.90023	224.74875	831.74884	-383.49471	200.96645	807.47307	-403.68247	54.21735	829.77927	-63.76390	33.85834	817.97880	-262.66640	57.02042	824.78176	-69.45778	36.60044	808.04635	-238.44649	
19	0.18000000	167.83743	462.62917	-51.10060	179.01826	387.97365	-32.51046	133.64149	90.63292	-83.55658	60.91401	59.26015	-118.46757	235.69634	46.05492	-65.27479	274.55814	66.70859	-124.00488	76.56129	443.26214	-336.98173	48.14159	377.54872	-337.77529	-221.02777	246.10763	-265.93347	-268.33505	294.55373	-209.44593	-236.15108	140.90023	-290.62209	-188.05723	103.40422	-245.90956	172.54556	275.63549	-35.39127	103.01310	391.58636	-35.44205	88.63943	277.31761	-43.18652	4.12600	456.03925	-338.75031	-95.01932	387.58166	-321.90918	163.50332	782.35210	-42.23366	197.42390	672.90844	-43.63741	159.26040	639.51424	3.04074	77.40675	757.02591	27.83381	101.18107	644.45815	10.88112	107.92093	730.37406	-337.66009	132.07450	595.75517	-351.16408	-7.89349	710.19910	-333.61600	27.53638	572.31836	-334.38604	127.36190	914.38474	-46.82398	-64.25519	911.92331	-99.27174	98.99494	896.75852	-303.62431	-76.70293	901.72673	-203.66816	-15.15250	1382.26801	-149.60605	56.63280	1324.12288	-0.19554	35.67126	1331.36753	-316.43551	103.73501	1298.50305	-139.62592	99.40387	1299.32267	-183.85925	57.30539	1080.62687	70.27213	1.52434	984.22814	18.55738	19.13264	1001.07953	85.77877	52.51435	885.03801	108.69680	49.01793	763.79669	118.15939	4.92277	767.83736	129.46021	83.34162	1208.21496	-367.90164	56.46191	986.77515	-332.62977	64.96226	998.61642	-393.91090	154.71647	930.36067	-404.76871	226.66323	827.37293	-386.22307	201.38161	804.40452	-405.40141	66.46411	832.10456	-62.85189	46.26585	821.42062	-261.83301	68.88289	827.78375	-68.49259	48.74236	811.28749	-237.41746	
20	0.19000000	171.60398	462.65800	-50.30875	181.43799	387.89598	-31.80901	133.81973	90.84643	-83.40107	61.00024	59.43336	-118.44103	235.74923	45.98832	-65.19224	274.72216	66.55367	-123.90326	103.97841	447.57698	-336.46102	77.56529	380.25406	-336.45778	-189.25424	243.79011	-265.05390	-239.53533	291.20703	-209.96190	-199.64259	137.88440	-288.67620	-150.71588	102.99708	-242.76718	173.87513	275.63729	-34.75719	105.55088	392.25847	-35.14139	90.02878	278.19304	-43.13808	31.95310	457.74922	-339.80568	-65.85882	387.39316	-322.90117	173.61521	782.69312	-42.05360	205.72868	672.64438	-43.55028	167.27257	639.98053	3.39524	87.66377	759.05299	28.54722	109.17359	645.95988	11.45105	125.02787	735.66790	-336.78186	153.43725	601.88338	-350.24048	10.12965	712.42488	-332.82641	49.64885	575.28442	-334.24312	139.66877	916.11506	-45.62858	-51.68261	915.32570	-98.19160	112.11618	900.20059	-302.42164	-63.93296	905.29013	-202.63050	-0.95626	1385.37089	-149.28127	70.74820	1326.98840	-0.24043	48.54971	1334.44644	-316.58795	117.44794	1301.37532	-139.94475	112.99624	1302.25318	-184.19927	75.12576	1083.71086	70.49191	18.68189	986.48875	21.10747	38.41581	1003.77107	87.61350	75.84847	888.21416	108.76514	75.78632	766.96236	117.99612	32.03373	769.80886	131.06833	95.05256	1210.60161	-368.15675	65.68256	989.84999	-331.62376	73.99723	1001.30294	-393.02569	160.34755	929.61558	-405.83266	228.13967	823.27360	-389.19420	201.35828	801.68685	-407.32013	78.53788	834.36502	-62.02096	58.70955	824.84032	-261.09867	80.64213	830.74303	-67.52873	60.83693	814.51864	-236.38110	
21	0.20000000	175.21318	462.71507	-49.43295	183.90425	387.85254	-31.03435	133.98387	91.06307	-83.18902	61.04729	59.59242	-118.37978	235.78456	45.91470	-65.07769	274.88809	66.37166	-123.76385	130.89313	452.06369	-335.72128	106.88785	383.06508	-334.93260	-156.95161	240.36559	-264.24042	-209.98071	286.26154	-210.21637	-162.51524	134.00228	-286.98054	-112.73899	101.69072	-240.09604	175.27258	275.68621	-34.09526	108.15083	392.92424	-34.62604	91.50911	279.05018	-42.86525	59.23030	459.13625	-340.90619	-36.80564	386.28190	-324.07831	183.77440	782.91219	-41.68538	213.86973	672.26708	-43.22957	175.00056	640.37170	3.82830	97.76327	760.97357	29.19756	116.98895	647.42449	12.03017	141.84574	740.96926	-335.95100	174.44339	608.13829	-349.21156	28.03343	714.72638	-332.22357	71.51086	578.41880	-334.21410	151.87852	917.79117	-44.42175	-39.14734	918.63193	-97.36311	125.29137	903.56643	-301.15182	-51.18309	908.75446	-201.93827	13.19982	1388.31108	-148.99042	84.62071	1329.78079	-0.25826	61.44446	1337.39142	-316.71581	131.13220	1304.15939	-140.25238	126.57972	1305.07730	-184.53228	92.57132	1086.84550	70.82908	35.81214	988.71569	23.55081	57.55073	1006.44979	89.35246	98.99606	891.58615	108.71113	102.59427	770.47611	117.52279	59.30973	772.03730	132.32366	106.64510	1212.87524	-368.49496	74.78671	992.83506	-330.88516	82.86273	1003.96637	-392.39212	165.69779	929.02479	-407.07198	229.18554	819.53953	-392.31524	200.94967	799.34477	-409.43387	90.48228	836.55854	-61.27230	71.25395	828.18024	-260.46069	92.37379	833.64449	-66.56548	72.95153	817.70424	-235.31394	
22	0.21000000	178.68682	462.78322	-48.48947	186.42822	387.82618	-30.21502	134.12331	91.27711	-82.92205	61.04164	59.74525	-118.28317	235.80986	45.82992	-64.93724	275.04490	66.14349	-123.60535	157.20669	456.65534	-334.76462	135.98289	386.07849	-333.20978	-124.16567	235.97317	-263.50706	-179.79423	279.73541	-210.18828	-124.65851	129.41487	-285.63515	-73.95647	99.70795	-238.01580	176.74980	275.76131	-33.42146	110.80505	393.57189	-33.97085	93.07925	279.88400	-42.43468	85.88862	460.28066	-341.91315	-7.91649	384.42390	-325.25003	194.08208	783.01110	-41.03602	221.89727	671.75241	-42.57885	182.44968	640.66701	4.39647	107.72557	762.78215	29.78691	124.59913	648.81959	12.62739	158.39108	746.18598	-335.17635	195.09235	614.40841	-348.08342	45.78371	716.96520	-331.86810	93.11229	581.61749	-334.30820	164.02087	919.40708	-43.22166	-26.64568	921.77588	-96.80188	138.54598	906.80815	-299.80147	-38.44693	912.04359	-201.58233	27.33640	1391.03835	-148.72069	98.32939	1332.46391	-0.24618	74.42934	1340.14251	-316.77145	144.82774	1306.77573	-140.50232	140.18318	1307.70910	-184.80894	109.60652	1089.99050	71.33311	52.97298	990.87409	25.82734	76.47061	1009.08331	90.98341	121.83600	895.14697	108.60334	129.32909	774.37464	116.83659	86.62464	774.54954	133.22588	118.16386	1214.99292	-368.87847	83.75089	995.70223	-330.41099	91.54069	1006.56828	-391.99826	170.78720	928.58629	-408.47318	229.79930	816.24883	-395.49980	200.21576	797.39577	-411.73298	102.33507	838.66149	-60.60133	83.93718	831.38464	-259.91044	104.12559	836.46461	-65.60786	85.13471	820.80256	-234.20082	
